<svg xmlns="http://www.w3.org/2000/svg" width="1274" height="220" viewBox="0 0 1274 220">
      <rect width="100%" height="100%" fill="#111"/>
      <text x="40" y="42" fill="#f4e3c1" font-family="DejaVu Sans, Helvetica, sans-serif" font-size="22">I2V — Nanook v2 / St. Alfonzo v3</text>
      <line x1="250" y1="118.0" x2="280" y2="118.0" stroke="#c4a35a" stroke-width="3"/><polygon points="280,112.0 286,118.0 280,124.0" fill="#c4a35a"/><line x1="496" y1="118.0" x2="526" y2="118.0" stroke="#c4a35a" stroke-width="3"/><polygon points="526,112.0 532,118.0 526,124.0" fill="#c4a35a"/><line x1="742" y1="118.0" x2="772" y2="118.0" stroke="#c4a35a" stroke-width="3"/><polygon points="772,112.0 778,118.0 772,124.0" fill="#c4a35a"/><line x1="988" y1="118.0" x2="1018" y2="118.0" stroke="#c4a35a" stroke-width="3"/><polygon points="1018,112.0 1024,118.0 1018,124.0" fill="#c4a35a"/><rect x="40" y="70" width="210" height="96" rx="14" fill="#1c2a24" stroke="#c4a35a" stroke-width="2"/>
        <text x="56" y="108" fill="#fff" font-family="DejaVu Sans, Helvetica, sans-serif" font-size="18">Flux Schnell</text>
        <text x="56" y="136" fill="#c9c9c9" font-family="DejaVu Sans, Helvetica, sans-serif" font-size="13">local stills</text><rect x="286" y="70" width="210" height="96" rx="14" fill="#1c2a24" stroke="#c4a35a" stroke-width="2"/>
        <text x="302" y="108" fill="#fff" font-family="DejaVu Sans, Helvetica, sans-serif" font-size="18">LoadImage</text>
        <text x="302" y="136" fill="#c9c9c9" font-family="DejaVu Sans, Helvetica, sans-serif" font-size="13">first frame</text><rect x="532" y="70" width="210" height="96" rx="14" fill="#1c2a24" stroke="#c4a35a" stroke-width="2"/>
        <text x="548" y="108" fill="#fff" font-family="DejaVu Sans, Helvetica, sans-serif" font-size="18">LTXVImgToVideo</text>
        <text x="548" y="136" fill="#c9c9c9" font-family="DejaVu Sans, Helvetica, sans-serif" font-size="13">same LTX graph</text><rect x="778" y="70" width="210" height="96" rx="14" fill="#1c2a24" stroke="#c4a35a" stroke-width="2"/>
        <text x="794" y="108" fill="#fff" font-family="DejaVu Sans, Helvetica, sans-serif" font-size="18">8-step sample</text>
        <text x="794" y="136" fill="#c9c9c9" font-family="DejaVu Sans, Helvetica, sans-serif" font-size="13">768×512 · 24fps</text><rect x="1024" y="70" width="210" height="96" rx="14" fill="#1c2a24" stroke="#c4a35a" stroke-width="2"/>
        <text x="1040" y="108" fill="#fff" font-family="DejaVu Sans, Helvetica, sans-serif" font-size="18">ffmpeg mux</text>
        <text x="1040" y="136" fill="#c9c9c9" font-family="DejaVu Sans, Helvetica, sans-serif" font-size="13">original MP3</text>
    </svg>